<?xml version="1.0" standalone="no"?>
<!DOCTYPE svg PUBLIC "-//W3C//DTD SVG 20010904//EN"
 "http://www.w3.org/TR/2001/REC-SVG-20010904/DTD/svg10.dtd">
<svg version="1.0" xmlns="http://www.w3.org/2000/svg"
 width="194.000000pt" height="194.000000pt" viewBox="0 0 194.000000 194.000000"
 preserveAspectRatio="xMidYMid meet">
<metadata>
Created by potrace 1.11, written by Peter Selinger 2001-2013
</metadata>
<g transform="translate(0.000000,194.000000) scale(0.100000,-0.100000)"
fill="#000000" stroke="none">
<path d="M592 1923 c-38 -32 -33 -70 15 -118 46 -46 116 -82 213 -111 86 -25
87 -27 89 -140 1 -83 -16 -140 -59 -194 -95 -120 -302 -110 -387 17 -38 57
-58 129 -49 178 15 80 109 140 191 123 123 -26 175 -202 66 -223 -29 -5 -71
14 -73 34 0 9 -2 22 -2 29 -1 8 -9 18 -20 24 -28 16 -50 -12 -42 -54 19 -101
155 -133 225 -52 17 19 32 41 32 49 1 8 2 25 3 38 1 12 -3 41 -10 63 -41 147
-218 206 -345 116 -84 -60 -112 -171 -70 -283 70 -185 248 -255 444 -174 14 6
17 2 17 -22 0 -44 29 -123 63 -170 17 -24 33 -43 36 -43 5 0 7 -444 2 -472 0
-5 -23 -8 -51 -8 l-50 0 0 90 0 91 -117 -3 c-114 -3 -118 -4 -121 -26 -4 -28
7 -32 98 -35 l75 -2 1 -58 1 -57 -43 0 c-32 0 -46 -5 -53 -19 -14 -25 7 -42
56 -45 l38 -2 1 -77 c1 -64 -2 -77 -15 -78 -9 0 -42 -1 -73 -1 -67 0 -99 -17
-82 -45 10 -16 27 -18 123 -19 l111 -1 0 111 0 112 52 -1 53 0 0 -218 c0 -207
1 -219 20 -233 39 -29 45 1 45 237 l0 216 48 -1 47 -1 5 -110 5 -110 105 -1
c124 0 130 1 130 31 0 27 -23 37 -73 35 -17 -1 -48 -2 -68 -1 l-35 1 1 77 1
77 44 3 c52 3 69 16 54 41 -7 10 -28 19 -55 22 l-44 5 0 55 0 55 73 2 c90 2
104 7 100 35 -3 22 -7 23 -120 26 l-118 3 0 -91 0 -90 -50 0 -50 0 0 239 c0
204 2 240 16 251 40 34 83 134 86 202 l1 36 41 -21 c58 -30 172 -33 245 -5
151 58 238 251 174 387 -54 113 -190 159 -301 102 -133 -69 -166 -246 -59
-311 93 -57 209 12 198 116 -3 34 -61 20 -61 -15 0 -47 -70 -75 -109 -43 -56
45 -22 155 61 198 31 16 95 18 130 5 58 -22 98 -80 98 -142 0 -145 -106 -252
-250 -253 -118 0 -208 72 -240 192 -10 39 -6 184 5 203 3 3 22 9 42 12 51 9
159 53 207 86 69 47 99 109 71 146 -13 16 -28 20 -78 20 -103 0 -225 -73 -275
-165 -25 -46 -52 -46 -73 0 -24 54 -77 100 -152 135 -81 38 -153 45 -185 18z
m163 -79 c55 -26 70 -37 100 -73 l20 -24 -32 6 c-35 7 -149 59 -173 79 -8 7
-21 21 -29 31 -13 16 -11 17 25 11 22 -3 62 -16 89 -30z m545 25 c0 -14 -63
-57 -120 -83 -66 -30 -110 -41 -110 -29 0 14 49 56 94 82 51 29 136 48 136 30z
m-309 -492 c53 -72 58 -187 14 -264 -29 -48 -35 -51 -57 -25 -62 70 -67 191
-12 275 28 43 33 44 55 14z"/>
</g>
</svg>
